<?xml version="1.0" encoding="iso-8859-1"?>
<!-- Generator: Adobe Illustrator 24.1.1, SVG Export Plug-In . SVG Version: 6.00 Build 0)  -->
<svg version="1.1" id="Layer_1" xmlns="http://www.w3.org/2000/svg" xmlns:xlink="http://www.w3.org/1999/xlink" x="0px" y="0px"
	 width="500px" height="500px" viewBox="0 0 500 500" style="enable-background:new 0 0 500 500;" xml:space="preserve">
<g>
	<g>
		<path style="fill:#03234B;" d="M479.067,438.356L375.411,334.699c25.196-33.641,40.119-75.421,40.119-120.684
			c0-111.293-90.222-201.515-201.515-201.515S12.5,102.722,12.5,214.015S102.722,415.53,214.015,415.53
			c45.264,0,87.044-14.925,120.684-40.119l103.657,103.657c11.242,11.243,29.47,11.243,40.711,0
			C490.311,467.826,490.311,449.598,479.067,438.356z M214.015,357.954c-79.495,0-143.939-64.444-143.939-143.939
			S134.52,70.076,214.015,70.076s143.939,64.444,143.939,143.939S293.51,357.954,214.015,357.954z"/>
		<path style="fill:#03234B;" d="M214.058,92.628c-52.04,0.019-96.54,32.988-113.743,79.132h1.067h1.073h7.457h1.069h1.082
			c1.248-3.008,2.627-5.961,4.139-8.844h17.152c-0.995,2.911-1.901,5.86-2.718,8.844h1.049h1.029h7.198h1.034h1.042
			c0.882-3.008,1.858-5.96,2.928-8.844h29.377c-0.457,2.895-0.861,5.856-1.239,8.844h1.008h1.009h6.924h1.009h1.009
			c0.395-2.987,0.818-5.945,1.3-8.844h57.602c0.482,2.899,0.906,5.857,1.301,8.844h1.009h1.008h6.934h1.009h1.008
			c-0.379-2.988-0.784-5.949-1.241-8.844h29.384c1.07,2.884,2.047,5.837,2.93,8.844h1.042h1.034h7.17h1.029h1.05
			c-0.817-2.984-1.722-5.934-2.717-8.844h17.17c1.513,2.884,2.892,5.837,4.14,8.844h1.082h1.069h7.288h1.101h1.039
			C310.584,125.619,266.1,92.647,214.058,92.628z M137.619,151.993h-14.852c9.621-14.115,22.334-25.806,37.107-34.165
			C150.989,127.18,143.37,138.857,137.619,151.993z M176.251,151.993h-26.693c10.191-21.15,25.055-36.56,42.211-43.816
			C185.338,118.354,180.005,133.395,176.251,151.993z M187.385,151.993c6.254-29.019,16.934-48.427,26.717-48.427
			c9.792,0,20.48,19.408,26.738,48.427H187.385z M251.979,151.993c-3.758-18.596-9.097-33.636-15.533-43.815
			c17.164,7.259,32.035,22.667,42.232,43.815H251.979z M290.597,151.993c-5.753-13.141-13.376-24.823-22.265-34.178
			c14.785,8.36,27.507,20.056,37.135,34.178H290.597z"/>
		<path style="fill:#03234B;" d="M325.613,256.103h-7.038h-1.085h-1.087c-3.682,9.133-7.435,14.804-8.482,16.301h-15.747
			c2.126-5.231,3.847-10.822,5.24-16.301h-1.018h-1.042h-6.948h-1.14h-1.037c-2.384,8.507-4.78,14.681-5.544,16.576h-28.078
			c0.871-3.573,1.676-9.745,2.375-16.576h-1.009h-1.007h-6.747h-1.008h-1.008c-0.2,1.542-0.413,3.118-0.645,4.733l-0.024,0.167
			l0.021,0.107c-0.215,1.437-0.442,2.85-0.676,4.257c-0.383,2.439-0.797,4.896-1.231,7.312h-55.29
			c-0.237-1.542-0.771-5.085-1.404-9.703c-0.352-2.247-0.672-4.549-0.976-6.872h-1.009h-1.008h-6.928h-1.01h-1.005
			c0.704,5.605,1.536,11.069,2.509,16.301h-27.675c-2.294-5.193-4.265-10.654-5.912-16.301h-1.056h-1.029h-7.182h-1.027h-1.047
			c1.517,5.574,3.337,11.016,5.471,16.301h-15.716c-3.243-5.192-6.031-10.653-8.359-16.301h-1.102h-1.063h-7.472h-1.039h-1.096
			c17.149,46.402,61.761,79.132,113.792,79.132c52.065,0,96.568-32.973,113.738-79.132h-1.041H325.613z M128.127,283.319h12.906
			c5.269,10.311,11.589,19.349,18.842,26.957C147.773,303.411,136.918,294.203,128.127,283.319z M153.35,283.319h24.468
			c3.599,15.241,8.394,27.798,13.963,36.612C176.797,313.57,163.282,300.711,153.35,283.319z M214.102,324.54
			c-8.885,0-18.659-16.134-25.036-41.221h50.09C232.777,308.406,222.995,324.54,214.102,324.54z M236.335,320.093
			c4.932-7.718,9.16-18.107,12.605-30.977l0.033,0.17l1.083-4.487c0.146-0.606,0.263-1.105,0.348-1.479h24.481
			C261.024,308.213,243.121,317.376,236.335,320.093z M269.204,309.759c9.16-9.753,16.447-23.466,17.976-26.439h13.045
			C291.117,295.817,277.4,304.998,269.204,309.759z"/>
		<polygon style="fill:#03234B;" points="128.203,187.756 129.203,187.756 132.841,187.756 132.841,178.932 130.919,178.932 
			129.904,178.932 128.868,178.932 109.387,178.932 108.314,178.932 107.28,178.932 105.978,178.932 105.978,183.137 
			105.978,186.929 105.978,187.756 106.828,187.756 113.625,187.756 120.633,212.188 120.92,213.188 121.207,214.188 
			123.193,221.11 123.48,222.11 123.767,223.11 125.93,230.651 127.67,236.715 130.068,245.076 131.174,248.932 137.989,248.932 
			139.003,248.932 140.044,248.932 141.272,248.932 148.528,223.11 148.809,222.11 149.09,221.11 151.036,214.188 151.317,213.188 
			151.598,212.188 155.488,198.344 159.324,212.188 159.602,213.188 159.879,214.188 161.797,221.11 162.074,222.11 162.351,223.11 
			169.507,248.932 172.194,248.932 173.198,248.932 174.205,248.932 179.997,248.932 180.817,245.868 181.551,243.124 
			182.286,240.378 186.942,222.983 187.209,221.984 187.477,220.983 189.296,214.188 189.563,213.188 189.831,212.188 
			196.37,187.756 204.801,187.756 204.801,178.932 183.154,178.932 182.147,178.932 181.141,178.932 177.743,178.932 
			177.743,187.756 180.336,187.756 181.346,187.756 182.341,187.756 186.272,187.756 181.439,205.797 180.387,209.725 
			179.344,213.619 174.507,231.677 172.611,224.875 171.561,221.11 169.631,214.188 169.352,213.188 169.073,212.188 
			159.801,178.932 151.174,178.932 142.138,212.188 141.866,213.188 141.594,214.188 139.713,221.11 139.441,222.11 139.17,223.11 
			136.985,231.149 136.762,231.972 135.662,228.004 134.301,223.093 127.735,199.401 126.995,196.734 126.276,194.139 
			124.507,187.756 127.176,187.756 		"/>
		<polygon style="fill:#03234B;" points="213.82,213.188 213.82,214.188 213.82,220.983 213.82,221.984 213.82,222.983 
			213.82,240.108 206.172,240.108 206.172,248.932 230.878,248.932 230.878,240.108 223.329,240.108 223.329,222.983 
			223.329,221.984 223.329,220.983 223.329,214.188 223.329,213.188 223.329,212.188 223.329,196.972 206.172,196.972 
			206.172,205.794 213.82,205.794 213.82,212.188 		"/>
		<rect x="213.82" y="178.932" style="fill:#03234B;" width="9.509" height="11.569"/>
		<path style="fill:#03234B;" d="M245.877,213.188v1v6.796v1v1v17.124h-7.548v8.824h6.727h1.005h1.007h6.577h1.007h1.009h5.903
			v-8.824h-5.183h-0.993v-0.198v-14.647v-2.115l0.12,0.126l0.943,0.989l0.943,0.989l14.17,14.856h-5.687v8.824h22.329h1.032h1.024
			h2.673v-8.824h-0.905h-1.014h-1.019h-5.885l-16.584-17.124l-0.968-1l-0.487-0.503l0.526-0.498l7.178-6.796l1.056-1l1.056-1
			l6.753-6.394h7.255v-8.822H264.7v8.136h6.667l-7.493,7.08l-1.059,1l-1.058,1l-6.37,6.019v-23.068v-14.297v-3.91h-0.381h-1.007
			h-6.913h-1.005h-1.007h-6.744v8.824h7.547c0,0.007,0.001,0.013,0.001,0.02v24.412V213.188z"/>
		<rect x="304.994" y="178.932" style="fill:#03234B;" width="9.509" height="11.569"/>
		<polygon style="fill:#03234B;" points="304.994,213.188 304.994,214.188 304.994,221.11 304.994,222.11 304.994,223.11 
			304.994,240.108 300.732,240.108 299.732,240.108 298.707,240.108 297.346,240.108 297.346,247.444 297.346,248.932 
			298.069,248.932 299.077,248.932 318.996,248.932 320.059,248.932 321.113,248.932 322.052,248.932 322.052,245.804 
			322.052,241.946 322.052,240.108 321.465,240.108 314.503,240.108 314.503,223.11 314.503,222.11 314.503,221.11 314.503,214.188 
			314.503,213.188 314.503,212.188 314.503,196.972 302.255,196.972 301.241,196.972 300.247,196.972 297.346,196.972 
			297.346,205.794 300.918,205.794 301.917,205.794 302.926,205.794 304.994,205.794 304.994,212.188 		"/>
	</g>
</g>
</svg>
